<?xml version="1.0" standalone="no"?>
<svg version="1.0" xmlns="http://www.w3.org/2000/svg"
 width="980.000000pt" height="792.000000pt" viewBox="0 0 980.000000 792.000000"
 preserveAspectRatio="xMidYMid meet">

<g transform="translate(0.000000,792.000000) scale(0.100000,-0.100000)"
fill="white" opacity="0.3">
<path d="M6214 7880 c-21 -16 -60 -48 -86 -72 l-47 -43 -11 -430 c-6 -236 -12
-431 -14 -432 -1 -1 -967 -7 -2146 -13 l-2145 -11 -155 -51 c-451 -147 -700
-293 -974 -572 -310 -316 -483 -625 -591 -1053 -38 -151 -45 -315 -45 -1083
l0 -685 44 -78 c64 -112 113 -172 181 -224 123 -94 237 -129 392 -121 194 10
354 106 465 278 69 107 77 192 88 964 8 587 10 637 30 715 50 204 184 408 350
536 130 99 316 179 480 206 91 14 2816 25 3556 14 l472 -7 6 -217 c9 -303 25
-589 35 -635 19 -77 117 -143 232 -153 31 -3 72 0 92 6 41 14 245 146 432 281
619 445 1347 981 1483 1092 86 71 101 97 109 187 8 91 -10 162 -50 202 -90 88
-1518 1136 -1805 1324 -130 85 -182 105 -271 105 -60 0 -73 -3 -107 -30z"/>
<path d="M9075 4906 c-195 -48 -372 -226 -415 -416 -8 -38 -15 -252 -20 -695
-10 -772 -16 -827 -109 -1020 -119 -250 -389 -483 -612 -530 -155 -33 -361
-37 -2280 -42 l-1916 -5 -6 393 c-6 457 -8 471 -86 549 -56 56 -118 80 -207
80 -84 0 -136 -28 -400 -217 -488 -349 -1384 -1010 -1571 -1159 -89 -71 -93
-76 -113 -140 -45 -148 -21 -198 174 -358 267 -219 1516 -1123 1772 -1282 74
-46 83 -49 145 -49 56 0 77 5 135 35 72 37 106 74 124 139 17 57 29 304 30
579 0 138 1 253 3 253 1 1 956 5 2122 9 l2120 8 178 51 c200 58 331 108 475
180 369 186 728 535 925 901 94 174 205 476 226 615 6 39 16 424 22 877 l12
806 -37 78 c-93 195 -224 313 -403 359 -68 18 -218 18 -288 1z"/>
</g>
</svg>
