<?xml version="1.0" standalone="no"?>
<svg version="1.0" xmlns="http://www.w3.org/2000/svg"
 width="640.000000pt" height="640.000000pt" viewBox="0 0 640.000000 640.000000"
 preserveAspectRatio="xMidYMid meet">

<g transform="translate(0.000000,640.000000) scale(0.100000,-0.100000)"
fill="white" stroke="none">
<path d="M3094 4871 c-47 -35 -1664 -1655 -1688 -1691 -9 -13 -16 -42 -16 -64
0 -36 8 -47 113 -154 124 -126 156 -147 208 -132 26 8 204 180 746 722 l713
713 713 -713 c498 -498 721 -714 742 -720 55 -16 85 3 204 121 106 108 113
117 119 162 l5 47 -869 869 c-869 869 -869 869 -910 869 -30 0 -52 -8 -80 -29z"/>
<path d="M2259 2664 c-869 -869 -869 -869 -869 -910 0 -29 8 -52 28 -80 42
-56 197 -203 229 -215 63 -24 53 -32 806 719 l717 717 718 -717 c489 -489 726
-719 745 -724 45 -11 79 12 202 136 l118 120 -6 46 -5 47 -860 859 -859 860
-48 5 -47 6 -869 -869z"/>
</g>
</svg>
